<?xml version="1.0" encoding="UTF-8" standalone="no"?>
<!-- Created with Inkscape (http://www.inkscape.org/) -->

<svg
   width="20.039541mm"
   height="20.042187mm"
   viewBox="0 0 20.039541 20.042187"
   version="1.1"
   id="svg1"
   xmlns="http://www.w3.org/2000/svg"
   xmlns:svg="http://www.w3.org/2000/svg">
  <defs
     id="defs1" />
  <g
     id="layer1"
     transform="translate(-58.7375,-64.822917)">
    <g
       id="g87"
       transform="matrix(0.26458333,0,0,0.26458333,58.7375,64.822917)">
      <g
         id="g86">
        <g
           id="g73">
          <path
             class="cls-1"
             d="m 5.83,38.16 c 1.59,0 2.54,-1.01 2.65,-2.8 0,-0.32 0,-0.75 -0.06,-1.21 V 34.03 H 7.09 l 0.12,0.26 c 0.06,0.2 0.12,0.63 0.12,1.01 -0.06,0.89 -0.75,1.47 -1.7,1.38 -1.01,-0.06 -1.59,-0.69 -1.59,-1.59 0,-0.32 0.06,-0.63 0.32,-0.95 l 0.2,-0.26 -1.27,-0.2 -0.06,0.12 c -0.2,0.37 -0.26,0.84 -0.32,1.21 -0.12,1.85 0.89,3.06 2.74,3.12 0.03,0.03 0.09,0.03 0.17,0.03 z"
             id="path53"
             style="fill:#222222;stroke-width:0px" />
          <path
             class="cls-1"
             d="m 6.06,31.96 c 0.37,0.12 0.69,0.12 1.01,0.12 1.21,0 2.11,-0.69 2.48,-1.9 C 9.75,29.43 9.67,28.8 9.35,28.16 8.98,27.53 8.34,27.09 7.5,26.83 7.18,26.71 6.81,26.71 6.55,26.71 c -1.21,0 -2.11,0.69 -2.48,1.9 -0.46,1.56 0.29,2.83 1.99,3.35 z m -0.87,-3 c 0.2,-0.69 0.75,-0.84 1.21,-0.84 0.2,0 0.43,0.06 0.69,0.12 0.58,0.2 1.01,0.43 1.21,0.84 0.12,0.26 0.2,0.52 0.06,0.84 -0.2,0.69 -0.75,0.84 -1.21,0.84 C 6.89,30.76 6.72,30.7 6.46,30.64 5.68,30.38 4.93,29.8 5.19,28.97 Z"
             id="path54"
             style="fill:#222222;stroke-width:0px" />
          <path
             class="cls-1"
             d="M 11.54,24.84 9.69,23.83 9.75,23.71 c 0.2,-0.32 0.32,-0.32 0.58,-0.26 l 1.85,0.26 0.69,-1.33 -2.42,-0.26 h -0.43 c 0,-0.52 -0.26,-1.01 -0.75,-1.27 -0.26,-0.12 -0.52,-0.2 -0.75,-0.2 -0.89,0 -1.33,0.89 -1.79,1.7 l -0.66,1.21 4.82,2.6 0.66,-1.33 z M 8.68,23.13 8.62,23.25 7.73,22.82 7.79,22.7 c 0.2,-0.37 0.43,-0.75 0.84,-0.58 0.12,0.06 0.2,0.12 0.26,0.26 0.03,0.23 -0.09,0.55 -0.2,0.75 z"
             id="path55"
             style="fill:#222222;stroke-width:0px" />
          <polygon
             class="cls-1"
             points="15.58,18.81 16.53,17.6 12.35,14.11 11.45,15.14 13.99,17.22 10.44,16.41 9.43,17.6 13.67,21.09 14.51,20.02 12.03,18 "
             id="polygon55"
             style="fill:#222222;stroke-width:0px" />
          <polygon
             class="cls-1"
             points="20.65,14.11 19.9,13.24 18.37,14.42 17.68,13.62 19.07,12.46 18.32,11.57 16.93,12.72 16.41,12.03 17.94,10.82 17.16,9.87 14.57,11.97 18,16.21 "
             id="polygon56"
             style="fill:#222222;stroke-width:0px" />
          <polygon
             class="cls-1"
             points="25.18,11.39 24.61,10.38 22.87,11.34 20.8,7.59 19.59,8.28 22.24,13.04 "
             id="polygon57"
             style="fill:#222222;stroke-width:0px" />
          <polygon
             class="cls-1"
             points="29.8,9.61 29.36,8.54 27.58,9.17 26.13,5.16 24.78,5.62 26.62,10.76 "
             id="polygon58"
             style="fill:#222222;stroke-width:0px" />
          <path
             class="cls-1"
             d="m 35.34,8.71 h 0.32 C 36.41,8.65 36.99,8.39 37.3,8.02 37.61,7.65 37.73,7.07 37.67,6.43 L 37.41,3 36.03,3.06 36.29,6.18 c 0.06,1.07 -0.37,1.27 -0.75,1.33 H 35.42 C 35.1,7.51 34.67,7.39 34.53,6.3 L 34.27,3.18 32.89,3.3 33.15,6.73 c 0.2,1.3 0.92,1.99 2.19,1.99 z"
             id="path58"
             style="fill:#222222;stroke-width:0px" />
          <polygon
             class="cls-1"
             points="44.34,9.12 45.03,3.63 43.7,3.46 43.27,6.69 42.11,3.26 40.59,3.09 39.84,8.48 41.16,8.65 41.6,5.48 42.75,8.86 "
             id="polygon59"
             style="fill:#222222;stroke-width:0px" />
          <polygon
             class="cls-1"
             points="49.15,4.85 47.83,4.41 46.18,9.61 47.51,10.07 "
             id="polygon60"
             style="fill:#222222;stroke-width:0px" />
          <polygon
             class="cls-1"
             points="50.57,11.34 51.95,11.97 56.02,7.9 54.81,7.27 52.15,9.98 52.7,6.26 51.37,5.54 "
             id="polygon61"
             style="fill:#222222;stroke-width:0px" />
          <polygon
             class="cls-1"
             points="57.4,15.78 58.09,14.83 56.59,13.62 57.23,12.78 58.61,13.87 59.36,12.92 57.98,11.83 58.5,11.13 60,12.35 60.78,11.39 58.09,9.35 54.75,13.67 "
             id="polygon62"
             style="fill:#222222;stroke-width:0px" />
          <path
             class="cls-1"
             d="m 59.68,18.06 1.59,-1.38 0.06,0.12 c 0.2,0.26 0.2,0.32 0.06,0.63 l -0.89,1.64 1.01,1.15 1.07,-2.16 C 62.64,18 62.7,17.8 62.7,17.63 c 0.43,0.2 1.01,0.12 1.47,-0.26 1.21,-1.01 0.26,-2.11 -0.43,-2.91 l -0.89,-1.01 -4.12,3.61 0.98,1.01 z M 62.94,15.2 63,15.32 c 0.2,0.26 0.37,0.52 0.37,0.69 0,0.12 -0.06,0.2 -0.2,0.26 -0.06,0.12 -0.2,0.12 -0.26,0.12 -0.26,0 -0.52,-0.26 -0.63,-0.43 l -0.06,-0.12 0.72,-0.63 z"
             id="path62"
             style="fill:#222222;stroke-width:0px" />
          <path
             class="cls-1"
             d="M 64.76,22.44 C 64.5,22.64 64.13,22.32 64.01,22.07 63.81,21.75 63.75,21.44 63.75,21 v -0.32 l -1.27,0.58 0.06,0.26 c 0.12,0.43 0.2,0.69 0.43,1.15 0.43,0.75 1.01,1.15 1.64,1.15 0.32,0 0.58,-0.06 0.89,-0.26 0.95,-0.58 0.84,-1.47 0.69,-2.16 -0.06,-0.43 -0.12,-0.75 0.06,-0.89 0.12,-0.06 0.2,-0.06 0.26,-0.06 0.26,0 0.43,0.26 0.52,0.32 0.2,0.26 0.26,0.58 0.32,0.89 l 0.06,0.26 1.15,-0.52 v -0.12 c -0.06,-0.37 -0.26,-0.75 -0.52,-1.21 -0.58,-1.01 -1.59,-1.33 -2.48,-0.75 -0.95,0.58 -0.84,1.47 -0.69,2.11 0.09,0.55 0.14,0.87 -0.12,1.01 z"
             id="path63"
             style="fill:#222222;stroke-width:0px" />
          <rect
             class="cls-1"
             x="64.959999"
             y="25.040001"
             width="5.4499998"
             height="1.38"
             transform="rotate(-22.19,67.690233,25.718585)"
             id="rect63"
             style="fill:#222222;stroke-width:0px" />
          <polygon
             class="cls-1"
             points="71.19,31.96 72.32,31.7 71.31,27.52 70.15,27.84 70.47,29.22 66.34,30.23 66.66,31.56 70.87,30.55 "
             id="polygon63"
             style="fill:#222222;stroke-width:0px" />
          <polygon
             class="cls-1"
             points="72.89,38.62 72.81,37.1 70.79,36.14 72.69,34.93 72.57,33.29 69.4,35.51 67.24,35.57 67.3,36.98 69.46,36.84 "
             id="polygon64"
             style="fill:#222222;stroke-width:0px" />
          <polygon
             class="cls-1"
             points="7.59,46.41 8.42,46.15 8.91,47.94 10.07,47.57 9.17,44.51 3.92,46.04 4.3,47.36 6.46,46.73 6.89,48.37 8.05,48.06 "
             id="polygon65"
             style="fill:#222222;stroke-width:0px" />
          <path
             class="cls-1"
             d="m 11.77,52.96 c 0.2,-0.63 0.12,-1.33 -0.2,-2.02 -0.52,-1.01 -1.27,-1.53 -2.28,-1.53 -0.43,0 -0.95,0.12 -1.47,0.37 -0.84,0.37 -1.33,0.95 -1.59,1.64 -0.2,0.63 -0.12,1.33 0.2,2.02 0.52,0.95 1.27,1.53 2.28,1.53 0.43,0 0.95,-0.12 1.47,-0.37 0.84,-0.43 1.41,-0.95 1.59,-1.64 z M 9.63,53.28 C 9.31,53.48 8.94,53.54 8.62,53.54 8.1,53.54 7.78,53.34 7.61,52.91 7.49,52.59 7.41,52.33 7.55,52.07 7.67,51.7 8.07,51.32 8.56,51.06 8.88,50.94 9.19,50.8 9.51,50.8 c 0.52,0 0.84,0.2 1.01,0.63 0.12,0.32 0.2,0.58 0.06,0.84 -0.14,0.37 -0.46,0.75 -0.95,1.01 z"
             id="path65"
             style="fill:#222222;stroke-width:0px" />
          <path
             class="cls-1"
             d="m 15.58,57.2 -2.48,1.96 c -0.63,0.52 -1.15,0.58 -1.53,0.12 -0.12,-0.2 -0.2,-0.37 -0.2,-0.58 0.06,-0.26 0.26,-0.58 0.63,-0.89 l 2.48,-1.96 -0.89,-1.07 -2.74,2.16 c -0.58,0.43 -0.89,0.95 -0.89,1.53 0,0.52 0.2,1.01 0.63,1.59 0.52,0.69 1.07,1.01 1.7,1.01 0.43,0 0.89,-0.2 1.33,-0.58 l 2.74,-2.22 z"
             id="path66"
             style="fill:#222222;stroke-width:0px" />
          <polygon
             class="cls-1"
             points="18.95,60.63 17.74,59.62 14.25,63.86 15.35,64.76 17.36,62.22 16.61,65.77 17.8,66.78 21.29,62.54 20.22,61.64 18.2,64.18 "
             id="polygon66"
             style="fill:#222222;stroke-width:0px" />
          <path
             class="cls-1"
             d="m 24.29,64.24 -1.38,-0.69 -2.48,4.87 1.38,0.69 c 0.69,0.32 1.27,0.52 1.85,0.52 0.95,0 1.7,-0.52 2.22,-1.53 0.81,-1.64 0.26,-2.91 -1.59,-3.87 z m 0.26,3.26 c -0.26,0.58 -0.75,0.89 -1.33,0.89 -0.26,0 -0.43,-0.06 -0.69,-0.2 l -0.32,-0.2 1.38,-2.8 0.32,0.2 c 0.37,0.2 0.63,0.52 0.75,0.84 0.12,0.43 0.06,0.81 -0.12,1.27 z"
             id="path67"
             style="fill:#222222;stroke-width:0px" />
          <polygon
             class="cls-1"
             points="27.32,71.48 30.58,72.37 30.89,71.22 28.99,70.73 29.22,69.72 31.01,70.15 31.33,69 29.54,68.57 29.74,67.67 31.7,68.19 31.96,67.04 28.73,66.23 "
             id="polygon67"
             style="fill:#222222;stroke-width:0px" />
          <path
             class="cls-1"
             d="m 35.39,67.5 -1.59,-0.06 -0.32,5.45 1.59,0.06 h 0.37 c 1.85,0 2.8,-0.89 2.91,-2.6 0.06,-0.84 -0.12,-1.53 -0.58,-2.02 -0.49,-0.46 -1.27,-0.78 -2.39,-0.84 z m -0.05,4.3 h -0.37 l 0.2,-3.12 h 0.37 c 0.75,0.06 1.47,0.63 1.38,1.64 -0.09,1.04 -0.84,1.47 -1.59,1.47 z"
             id="path68"
             style="fill:#222222;stroke-width:0px" />
          <path
             class="cls-1"
             d="m 43.18,67.04 -0.95,5.77 1.47,-0.32 0.2,-1.21 1.79,-0.37 0.69,1.07 1.53,-0.32 -3.23,-4.87 -1.5,0.26 z m 0.9,3.05 0.2,-1.47 0.75,1.21 z"
             id="path69"
             style="fill:#222222;stroke-width:0px" />
          <polygon
             class="cls-1"
             points="48.4,69.89 48.89,71.22 50.16,70.73 49.73,69.46 "
             id="polygon69"
             style="fill:#222222;stroke-width:0px" />
          <path
             class="cls-1"
             d="m 51.06,64.38 -1.38,0.75 2.6,4.82 1.38,-0.75 c 1.85,-1.01 2.28,-2.28 1.47,-3.87 -0.84,-1.64 -2.22,-1.96 -4.07,-0.95 z m 2.22,3.67 -0.32,0.2 -1.47,-2.74 0.32,-0.2 c 0.2,-0.12 0.43,-0.2 0.69,-0.2 0.58,0 1.01,0.32 1.33,0.84 0.55,0.92 0.09,1.73 -0.55,2.11 z"
             id="path70"
             style="fill:#222222;stroke-width:0px" />
          <polygon
             class="cls-1"
             points="56.19,66.08 56.97,67.24 58.09,66.4 57.34,65.28 "
             id="polygon70"
             style="fill:#222222;stroke-width:0px" />
          <polygon
             class="cls-1"
             points="63.06,62.16 59.19,58.21 58.35,59.05 58.09,61.21 59.31,61.38 59.45,60.52 62.05,63.11 "
             id="polygon71"
             style="fill:#222222;stroke-width:0px" />
          <path
             class="cls-1"
             d="m 65.8,56.19 c -0.43,-0.32 -0.95,-0.37 -1.53,-0.2 0,-0.52 -0.26,-1.01 -0.63,-1.27 -0.69,-0.52 -1.59,-0.2 -2.28,0.69 -0.63,0.89 -0.58,1.79 0.2,2.34 0.37,0.26 0.89,0.32 1.33,0.2 -0.06,0.58 0.12,1.01 0.58,1.33 0.32,0.26 0.63,0.32 0.95,0.32 0.58,0 1.07,-0.32 1.59,-0.95 0.37,-0.52 0.58,-1.01 0.52,-1.53 -0.09,-0.29 -0.35,-0.61 -0.72,-0.92 z m -2.63,0.38 c -0.2,0.12 -0.37,0.26 -0.58,0.26 -0.06,0 -0.2,0 -0.26,-0.06 -0.26,-0.2 -0.12,-0.52 0,-0.69 0.06,-0.12 0.2,-0.2 0.32,-0.2 0.06,0 0.2,0.06 0.32,0.12 0.2,0.14 0.29,0.4 0.2,0.58 z m 1.91,1.52 c -0.2,0.26 -0.52,0.32 -0.75,0.12 -0.2,-0.2 -0.32,-0.37 -0.26,-0.75 0.37,-0.26 0.69,-0.32 0.95,-0.12 0.12,0.06 0.2,0.2 0.2,0.32 0,0.12 -0.06,0.32 -0.14,0.43 z"
             id="path71"
             style="fill:#222222;stroke-width:0px" />
          <path
             class="cls-1"
             d="m 68.25,50.85 c -0.95,-0.43 -1.85,-0.2 -2.28,0.69 -0.12,0.26 -0.2,0.52 -0.12,0.75 C 65.53,52.03 65.22,51.6 65.48,51.02 65.6,50.76 65.8,50.59 66,50.39 l 0.2,-0.12 -1.01,-0.69 -0.12,0.12 c -0.26,0.26 -0.52,0.58 -0.69,0.95 -0.26,0.58 -0.32,1.07 -0.12,1.59 0.32,0.89 1.21,1.53 1.9,1.85 0.63,0.32 1.15,0.43 1.59,0.43 0.69,0 1.21,-0.32 1.59,-1.01 0.43,-1.12 0.06,-2.08 -1.1,-2.65 z m 0,2.05 c -0.06,0.2 -0.26,0.26 -0.43,0.26 -0.12,0 -0.32,-0.06 -0.43,-0.12 -0.26,-0.12 -0.43,-0.32 -0.52,-0.43 -0.06,-0.12 0,-0.2 0,-0.32 0.06,-0.2 0.2,-0.26 0.43,-0.26 0.12,0 0.32,0.06 0.52,0.12 0.26,0.12 0.37,0.26 0.43,0.43 0.09,0.12 0,0.23 0,0.32 z"
             id="path72"
             style="fill:#222222;stroke-width:0px" />
          <path
             class="cls-1"
             d="m 70.24,45.29 c -1.07,-0.32 -1.96,0.2 -2.28,1.21 0,0.12 -0.06,0.2 -0.06,0.26 l -0.63,-0.2 0.58,-1.9 -1.07,-0.32 -0.95,3.17 3.06,0.95 V 48.2 c 0,-0.32 0.06,-0.58 0.12,-0.89 0.06,-0.26 0.37,-0.89 0.95,-0.75 0.63,0.2 0.52,0.89 0.43,1.07 -0.12,0.37 -0.32,0.63 -0.52,0.89 l -0.2,0.2 1.27,0.43 0.06,-0.12 c 0.2,-0.37 0.37,-0.84 0.52,-1.15 0.2,-0.63 0.2,-1.21 -0.06,-1.7 -0.26,-0.4 -0.72,-0.72 -1.21,-0.89 z"
             id="path73"
             style="fill:#222222;stroke-width:0px" />
        </g>
        <path
           class="cls-1"
           d="m 30.09,32.02 -0.26,-0.14 c -1.56,-0.84 -4.15,-2.37 -4.15,-3.52 v -6.03 h 9 v 6.09 c 0,1.01 -2.37,2.45 -4.33,3.46 z m -3.32,-5.8 v 2.13 c 0.12,0.37 1.62,1.47 3.32,2.39 1.76,-0.92 3.29,-1.99 3.49,-2.39 v -2.13 z m 0,-1.1 h 6.81 v -1.7 h -6.81 z"
           id="path74"
           style="fill:#222222;stroke-width:0px" />
        <path
           class="cls-1"
           d="M 37.87,75.75 C 16.99,75.75 0,58.76 0,37.87 0,16.98 16.99,0 37.87,0 c 20.88,0 37.87,16.99 37.87,37.87 0,20.88 -16.99,37.87 -37.87,37.87 z m 0,-74.65 C 17.6,1.1 1.1,17.6 1.1,37.87 c 0,20.27 16.5,36.78 36.78,36.78 20.28,0 36.78,-16.5 36.78,-36.78 C 74.66,17.59 58.15,1.1 37.87,1.1 Z"
           id="path75"
           style="fill:#222222;stroke-width:0px" />
        <path
           class="cls-1"
           d="m 37.87,65.54 c -15.26,0 -27.66,-12.4 -27.66,-27.66 0,-15.26 12.4,-27.66 27.66,-27.66 15.26,0 27.66,12.4 27.66,27.66 0,15.26 -12.4,27.66 -27.66,27.66 z m 0,-54.23 c -14.65,0 -26.57,11.91 -26.57,26.57 0,14.66 11.91,26.57 26.57,26.57 14.66,0 26.57,-11.91 26.57,-26.57 0,-14.66 -11.91,-26.57 -26.57,-26.57 z"
           id="path76"
           style="fill:#222222;stroke-width:0px" />
        <path
           class="cls-1"
           d="M 45.6,32.02 45.34,31.88 C 43.75,31.04 41.1,29.51 41.1,28.36 v -6.03 h 9 v 6.09 c 0,0.81 -1.44,1.96 -4.24,3.46 z m -3.4,-3.69 c 0.14,0.4 1.67,1.5 3.4,2.42 1.7,-0.92 3.2,-1.99 3.4,-2.39 v -0.75 l -3.4,-2.22 -3.4,2.22 z m 3.4,-4.27 3.4,2.22 v -2.86 h -6.78 v 2.86 l 3.37,-2.22 z"
           id="path77"
           style="fill:#222222;stroke-width:0px" />
        <rect
           class="cls-1"
           x="32.110001"
           y="40.93"
           width="3.8099999"
           height="1.27"
           transform="rotate(-2.61,33.968289,41.619414)"
           id="rect77"
           style="fill:#222222;stroke-width:0px" />
        <rect
           class="cls-1"
           x="32.110001"
           y="44.419998"
           width="3.8099999"
           height="1.27"
           transform="rotate(-2.6,34.02756,45.081444)"
           id="rect78"
           style="fill:#222222;stroke-width:0px" />
        <rect
           class="cls-1"
           x="32.110001"
           y="47.91"
           width="3.8099999"
           height="1.27"
           transform="rotate(-2.6,33.95256,48.386402)"
           id="rect79"
           style="fill:#222222;stroke-width:0px" />
        <rect
           class="cls-1"
           x="27.780001"
           y="41.599998"
           width="2.1099999"
           height="1.76"
           id="rect80"
           style="fill:#222222;stroke-width:0px" />
        <rect
           class="cls-1"
           x="27.780001"
           y="46.610001"
           width="2.02"
           height="1.76"
           id="rect81"
           style="fill:#222222;stroke-width:0px" />
        <path
           class="cls-1"
           d="m 37.35,52.12 c 0,0 -0.75,-0.55 -1.21,-0.49 C 33.86,52 30.17,51.92 30,51.92 H 29.45 V 38.25 l 0.61,0.06 c 0,0 2.91,0.32 5.51,-0.14 0.89,-0.23 1.82,0 2.28,0.17 0.46,-0.14 1.47,-0.4 2.39,-0.17 2.6,0.46 5.48,0.14 5.51,0.14 l 0.61,-0.06 v 13.67 h -0.55 c -0.17,0 -3.95,0.09 -6.23,-0.29 -0.49,-0.09 -1.1,0.37 -1.27,0.49 l -0.46,0.32 -0.49,-0.32 z m -0.98,-1.61 c 0.63,-0.03 1.1,0.29 1.44,0.52 0.4,-0.26 1.21,-0.63 1.99,-0.49 1.67,0.29 4.33,0.29 5.48,0.29 V 39.46 c -1.04,0.09 -3.17,0.17 -5.22,-0.2 H 40 c -0.84,-0.23 -1.9,0.14 -1.9,0.14 l -0.26,0.06 h -0.06 c 0,0 -1.04,-0.43 -1.87,-0.2 h -0.06 c -2.05,0.37 -4.18,0.29 -5.22,0.2 v 11.37 c 1.12,0 3.78,0 5.48,-0.29 q 0.14,-0.03 0.26,-0.03 z"
           id="path81"
           style="fill:#222222;stroke-width:0px" />
        <rect
           class="cls-1"
           x="41.189999"
           y="43.16"
           width="1.27"
           height="3.8099999"
           transform="rotate(-87.4,41.829298,45.06819)"
           id="rect82"
           style="fill:#222222;stroke-width:0px" />
        <rect
           class="cls-1"
           x="41.189999"
           y="46.650002"
           width="1.27"
           height="3.8099999"
           transform="rotate(-87.4,41.826621,48.559229)"
           id="rect83"
           style="fill:#222222;stroke-width:0px" />
        <rect
           class="cls-1"
           x="45.98"
           y="41.599998"
           width="2.02"
           height="1.76"
           id="rect84"
           style="fill:#222222;stroke-width:0px" />
        <rect
           class="cls-1"
           x="45.98"
           y="46.610001"
           width="2.02"
           height="1.76"
           id="rect85"
           style="fill:#222222;stroke-width:0px" />
        <rect
           class="cls-1"
           x="41.189999"
           y="39.73"
           width="1.27"
           height="3.8099999"
           transform="rotate(-87.83,41.82509,41.631254)"
           id="rect86"
           style="fill:#222222;stroke-width:0px" />
      </g>
      <path
         class="cls-1"
         d="m 37.82,63.11 -0.23,-0.09 c -0.17,-0.09 -4.3,-1.93 -8.51,-5.19 -5.65,-4.38 -8.71,-9.17 -8.8,-13.9 0.2,-10.1 0.03,-23.54 0.03,-23.68 V 19.7 H 55.5 v 0.55 c 0,0.14 -0.03,13.76 -0.03,23.68 0,4.73 -3.03,9.52 -8.77,13.9 -4.27,3.26 -8.48,5.13 -8.65,5.19 z M 38.36,34.53 V 61.62 C 41.65,60 54.31,53.17 54.31,43.88 v -9.37 l -15.95,0.03 v 0 z m -16.87,0 c 0,3.14 -0.03,6.4 -0.09,9.37 0.12,5.48 4.62,10.12 8.37,13.01 3.06,2.37 6.12,4.01 7.5,4.7 V 34.52 c 0,0 -15.78,0 -15.78,0 z m 0,-1.1 h 32.85 c 0,-5.8 0.03,-10.99 0.03,-12.66 H 21.4 c 0.03,1.67 0.09,6.84 0.09,12.66 z"
         id="path86"
         style="fill:#222222;stroke-width:0px" />
    </g>
  </g>
</svg>
